<svg width="15" height="15" viewBox="0 0 15 15" fill="rgba(0,0,0,0)" xmlns="http://www.w3.org/2000/svg">
<path d="M12.5826 2.09715C12.2529 1.76284 11.8539 1.5028 11.4158 1.33772C11.0004 1.17726 10.5309 1.06792 9.86009 1.03831C9.20345 1.00714 8.99172 1 7.34025 1C5.68833 1 5.47732 1.00715 4.8233 1.03587C4.15256 1.06545 3.68034 1.17482 3.26674 1.33545C2.82451 1.50273 2.42751 1.76025 2.09714 2.09786M12.5826 2.09715L12.5808 2.09538L12.3988 2.28172L12.5844 2.09894L12.5826 2.09715ZM12.5826 2.09715C12.9202 2.42752 13.1778 2.8245 13.345 3.26663C13.5058 3.68037 13.615 4.15257 13.6446 4.82326C13.6734 5.47805 13.6758 5.68998 13.6758 7.34025C13.6758 8.99217 13.6686 9.20318 13.6399 9.8572C13.6103 10.5288 13.5007 10.9987 13.3401 11.4145C12.9977 12.2998 12.2977 12.9999 11.4124 13.3423M11.4124 13.3423L11.3182 13.0994M11.4124 13.3423C10.9985 13.5032 10.5261 13.6126 9.85492 13.6422C9.20085 13.671 8.98981 13.6781 7.33793 13.6781C5.68605 13.6781 5.47491 13.671 4.82094 13.6422C4.14982 13.6126 3.68026 13.5033 3.26473 13.3428C2.82645 13.1777 2.42727 12.9175 2.0975 12.583M2.0975 12.583L2.09894 12.5844L2.28172 12.3988L2.09609 12.5816L2.0975 12.583ZM2.0975 12.583C1.76323 12.2534 1.50316 11.8568 1.33555 11.4139C1.17482 11.0002 1.06545 10.528 1.03588 9.85724C1.00715 9.20322 1 8.99217 1 7.34025C1 5.68877 1.00714 5.47704 1.03831 4.82041C1.06792 4.14959 1.17726 3.68013 1.33773 3.26469C1.50288 2.82663 1.7628 2.42758 2.09714 2.09786M2.09714 2.09786L2.09538 2.09966L2.28172 2.28172L2.09894 2.09609L2.09714 2.09786Z" stroke="#E9D5A1"/>
<path d="M7.34015 4.21658C5.61603 4.21658 4.21716 5.61536 4.21716 7.33957C4.21716 9.06379 5.61603 10.4626 7.34015 10.4626C9.06437 10.4626 10.4631 9.06379 10.4631 7.33957C10.4631 5.61536 9.06437 4.21658 7.34015 4.21658Z" stroke="#E9D5A1"/>
<path fill-rule="evenodd" clip-rule="evenodd" d="M10.1481 3.66907C10.1481 3.30049 10.4468 3.0018 10.8153 3.0018C11.1838 3.0018 11.4826 3.30048 11.4826 3.66907C11.4826 4.03758 11.1838 4.33634 10.8153 4.33634C10.4468 4.33634 10.1481 4.03757 10.1481 3.66907Z" fill="rgba(0,0,0,0)" stroke="#E9D5A1"/>
</svg>
