<svg width="21" height="19" viewBox="0 0 21 19" fill="none" xmlns="http://www.w3.org/2000/svg">
<path d="M2.20679 18.943C2.72923 18.42 3.33816 17.9973 3.97016 17.6088C4.28847 17.4185 4.61831 17.2476 4.95046 17.079C5.11769 16.997 5.28837 16.9229 5.46021 16.8477L5.98035 16.6381C7.37813 16.1049 8.88663 15.8132 10.4032 15.8018C11.9209 15.7881 13.4375 16.0775 14.8388 16.6142C16.2365 17.1622 17.5225 17.9483 18.595 18.9464L18.5581 19C18.2502 18.8108 17.9492 18.6103 17.6366 18.4314L17.1626 18.1705C17.0831 18.1272 17.0058 18.0817 16.9251 18.0418L16.6806 17.9244L16.1927 17.6886C16.0278 17.6157 15.8594 17.5496 15.6933 17.4789C15.3635 17.332 15.0164 17.226 14.6773 17.1041C13.3014 16.6654 11.8552 16.4364 10.4101 16.4512C8.96506 16.4615 7.52114 16.6916 6.14296 17.1303C5.45329 17.3468 4.77977 17.6145 4.12816 17.9244C3.4754 18.232 2.83879 18.5807 2.24946 18.9931L2.20679 18.943Z" fill="white"/>
<path d="M2.20679 18.943C2.72923 18.42 3.33816 17.9973 3.97016 17.6088C4.28847 17.4185 4.61831 17.2476 4.95046 17.079C5.11769 16.997 5.28837 16.9229 5.46021 16.8477L5.98035 16.6381C7.37813 16.1049 8.88663 15.8132 10.4032 15.8018C11.9209 15.7881 13.4375 16.0775 14.8388 16.6142C16.2365 17.1622 17.5225 17.9483 18.595 18.9464L18.5581 19C18.2502 18.8108 17.9492 18.6103 17.6366 18.4314L17.1626 18.1705C17.0831 18.1272 17.0058 18.0817 16.9251 18.0418L16.6806 17.9244L16.1927 17.6886C16.0278 17.6157 15.8594 17.5496 15.6933 17.4789C15.3635 17.332 15.0164 17.226 14.6773 17.1041C13.3014 16.6654 11.8552 16.4364 10.4101 16.4512C8.96506 16.4615 7.52114 16.6916 6.14296 17.1303C5.45329 17.3468 4.77977 17.6145 4.12816 17.9244C3.4754 18.232 2.83879 18.5807 2.24946 18.9931L2.20679 18.943Z" fill="white"/>
<path d="M20.9541 16.6815C20.246 16.2713 19.6151 15.7529 19.0016 15.2174C18.7029 14.9417 18.4088 14.6603 18.1239 14.3686C17.9786 14.225 17.8425 14.0746 17.7064 13.922C17.5692 13.7716 17.4354 13.6177 17.3039 13.4628C16.2498 12.2209 15.333 10.8559 14.6018 9.3987C13.8591 7.94715 13.3066 6.40104 12.9295 4.82531C12.5628 3.24616 12.3783 1.62713 12.4498 0.0194907L12.5155 0.0137939C12.5674 0.408012 12.6066 0.80337 12.6689 1.19531C12.7358 1.58725 12.7888 1.98033 12.8753 2.36885L12.9918 2.95334L13.129 3.53328C13.2132 3.9218 13.3309 4.3012 13.4335 4.68517C13.6642 5.44512 13.9098 6.20166 14.2097 6.93768L14.3181 7.21569L14.4357 7.48913C14.5153 7.67143 14.5903 7.85487 14.6733 8.03602C14.8417 8.39606 15.0077 8.75724 15.1923 9.11044C15.905 10.5324 16.7573 11.8859 17.7237 13.1529C18.2081 13.7864 18.7225 14.3971 19.2657 14.9816C19.81 15.5638 20.3775 16.13 20.9968 16.6336L20.9541 16.6815Z" fill="white"/>
<path d="M0.0415184 16.67C0.749637 16.2598 1.38049 15.7414 1.99403 15.2059C2.29274 14.9302 2.58683 14.6487 2.87169 14.3571C3.017 14.2135 3.15309 14.0631 3.28918 13.9104C3.42642 13.76 3.5602 13.6062 3.69168 13.4513C4.74578 12.2094 5.66264 10.8444 6.39383 9.38718C7.13655 7.93564 7.68897 6.38953 8.0661 4.81379C8.43284 3.23464 8.61737 1.61561 8.54587 0.00797552L8.48128 0C8.42938 0.394218 8.39017 0.789576 8.32789 1.18152C8.261 1.57346 8.20795 1.96653 8.12146 2.35506L8.00497 2.93955L7.86773 3.51948C7.78354 3.908 7.66591 4.28741 7.56326 4.67137C7.33261 5.43133 7.08696 6.18786 6.7871 6.92389L6.67869 7.20189L6.56106 7.47534C6.48148 7.65764 6.40652 7.84107 6.32348 8.02223C6.1551 8.38227 5.98903 8.74344 5.8045 9.09665C5.09177 10.5186 4.23949 11.8721 3.27303 13.1391C2.78865 13.7726 2.27428 14.3833 1.73109 14.9678C1.18673 15.55 0.619316 16.1162 0 16.6198L0.0415184 16.67Z" fill="white"/>
</svg>
