<svg width="10" height="20" viewBox="0 0 10 20" fill="none" xmlns="http://www.w3.org/2000/svg">
<path d="M9.08594 0.832692H0.914055V2.00799H9.08594V0.832692Z" fill="#E2E5EB"/>
<path d="M9.08594 16.5816H0.914055V19.1673H9.08594V16.5816Z" fill="#E2E5EB"/>
<path d="M8.10986 0.0102251C9.08208 0.0292649 9.95602 0.886525 9.97531 1.94194C10.0082 7.31374 10.0082 12.6863 9.97531 18.0581C9.9567 19.0681 9.11295 19.97 8.10986 19.9898C6.03669 20.0034 3.96331 20.0034 1.89014 19.9898C0.919734 19.9707 0.0442076 19.1132 0.0246859 18.0581C-0.00822863 12.6863 -0.00822863 7.31374 0.0246859 1.94194C0.0432996 0.935653 0.871157 0.0302051 1.89014 0.0102251C3.96331 -0.00340836 6.03669 -0.00340836 8.10986 0.0102251ZM1.91625 1.18529C1.52332 1.18787 1.17238 1.5374 1.1599 1.94664C1.06115 7.31798 0.995551 12.694 1.16012 18.0635C1.17715 18.4617 1.51764 18.807 1.90467 18.8147C3.97466 18.8281 6.046 18.8819 8.11508 18.814C8.49938 18.7964 8.83307 18.4438 8.84033 18.0433C8.87325 12.6745 9.00445 7.3027 8.83988 1.93653C8.82285 1.53834 8.48236 1.19304 8.09533 1.18529C6.03579 1.17189 3.97602 1.18529 1.91625 1.18529Z" fill="#E2E5EB"/>
</svg>
