<svg width="13" height="14" viewBox="0 0 13 14" fill="none" xmlns="http://www.w3.org/2000/svg">
<path d="M12.2133 7.79972C12.6149 4.41929 12.0203 2.28514 10.9479 1.31987L10.9485 1.31931C9.21762 -0.32912 3.37212 -0.573103 1.30135 1.39334C0.371413 2.35525 0.043859 3.76699 0.00796259 5.5147C-0.0279338 7.26296 -0.0705607 10.5379 2.98119 11.4264H2.984L2.98119 12.7831C2.98119 12.7831 2.96044 13.3328 3.31155 13.4433C3.71314 13.5734 3.89487 13.3182 5.14395 11.8263C7.23267 12.0074 8.83679 11.5924 9.01907 11.5318C9.44085 11.3905 11.8274 11.0747 12.2133 7.79972ZM5.34979 10.8717C5.34979 10.8717 4.02779 12.5201 3.61667 12.948C3.48206 13.0871 3.33455 13.0742 3.33679 12.7983C3.33679 12.6171 3.34689 10.5458 3.34689 10.5458C0.759543 9.80431 0.912102 7.01561 0.940146 5.55676C0.96819 4.09735 1.23517 2.90211 2.02265 2.09725C3.83934 0.393855 8.96411 0.774693 10.2698 2.0019C11.8661 3.417 11.2979 7.41496 11.3013 7.55125C10.9732 10.285 9.03926 10.4583 8.68366 10.5766C8.53167 10.6271 7.12105 10.99 5.34979 10.8717Z" fill="#E9D5A1"/>
<path d="M6.08114 2.41751C5.8652 2.41751 5.8652 2.75404 6.08114 2.75684C7.75649 2.76974 9.13626 3.9375 9.1514 6.0795C9.1514 6.30554 9.48232 6.30273 9.47952 6.0767H9.47896C9.46101 3.76867 7.95449 2.43041 6.08114 2.41751Z" fill="#E9D5A1"/>
<path d="M8.28484 5.72445C8.27979 5.94768 8.61015 5.95833 8.61296 5.7323C8.64044 4.45966 7.85577 3.41138 6.38121 3.30088C6.16527 3.28518 6.14283 3.62451 6.35821 3.64022C7.63702 3.73725 8.31064 4.60998 8.28484 5.72445Z" fill="#E9D5A1"/>
<path d="M7.93139 7.1721C7.65432 7.01168 7.37219 7.11152 7.25553 7.26913L7.01155 7.58491C6.88759 7.74532 6.65595 7.724 6.65595 7.724C4.96546 7.27698 4.51339 5.50796 4.51339 5.50796C4.51339 5.50796 4.49264 5.26847 4.64744 5.14003L4.95256 4.88763C5.10512 4.76648 5.20159 4.47482 5.04622 4.18821C4.63117 3.43831 4.35241 3.17975 4.21051 2.9812C4.06132 2.79442 3.83697 2.75236 3.60364 2.87855H3.59859C3.11343 3.16236 2.58228 3.69351 2.75222 4.24037C3.0422 4.81696 3.57503 6.65496 5.27338 8.04371C6.07151 8.7005 7.33462 9.37355 7.87082 9.52892L7.87586 9.53677C8.40421 9.71289 8.91798 9.16098 9.19225 8.66123V8.65731C9.31396 8.41557 9.27358 8.18673 9.09578 8.03697C8.78056 7.72961 8.30494 7.39028 7.93139 7.1721Z" fill="#E9D5A1"/>
<path d="M6.61227 4.55277C7.15127 4.58417 7.41265 4.86574 7.44069 5.444C7.45079 5.67004 7.7789 5.65434 7.76881 5.4283C7.73291 4.67335 7.33917 4.25269 6.63021 4.21343C6.41427 4.20053 6.39408 4.53987 6.61227 4.55277Z" fill="#E9D5A1"/>
</svg>
